<svg xmlns="http://www.w3.org/2000/svg" xmlns:xlink="http://www.w3.org/1999/xlink" width="500" zoomAndPan="magnify" viewBox="0 0 375 374.999991" height="500" preserveAspectRatio="xMidYMid meet" version="1.0"><defs><g/><clipPath id="543b692154"><path d="M 0.558594 17 L 37 17 L 37 65 L 0.558594 65 Z M 0.558594 17 " clip-rule="nonzero"/></clipPath><clipPath id="3dc7d4a32a"><rect x="0" width="56" y="0" height="96"/></clipPath><clipPath id="a23f60cdee"><path d="M 173 107 L 279 107 L 279 219 L 173 219 Z M 173 107 " clip-rule="nonzero"/></clipPath><clipPath id="b38f1b6509"><path d="M 171.339844 146.375 L 224.8125 106.421875 L 280.027344 180.324219 L 226.554688 220.277344 Z M 171.339844 146.375 " clip-rule="nonzero"/></clipPath><clipPath id="8598925675"><path d="M 171.339844 146.375 L 224.8125 106.421875 L 280.027344 180.324219 L 226.554688 220.277344 Z M 171.339844 146.375 " clip-rule="nonzero"/></clipPath><clipPath id="2720f7da4a"><path d="M 174 109 L 278 109 L 278 218 L 174 218 Z M 174 109 " clip-rule="nonzero"/></clipPath><clipPath id="a0434dccda"><path d="M 171.339844 146.375 L 224.8125 106.421875 L 280.027344 180.324219 L 226.554688 220.277344 Z M 171.339844 146.375 " clip-rule="nonzero"/></clipPath><clipPath id="923c8592a3"><path d="M 171.339844 146.375 L 224.8125 106.421875 L 280.027344 180.324219 L 226.554688 220.277344 Z M 171.339844 146.375 " clip-rule="nonzero"/></clipPath><clipPath id="37336d0b34"><path d="M 183 152 L 189 152 L 189 159 L 183 159 Z M 183 152 " clip-rule="nonzero"/></clipPath><clipPath id="b8cc8cad89"><path d="M 171.339844 146.375 L 224.8125 106.421875 L 280.027344 180.324219 L 226.554688 220.277344 Z M 171.339844 146.375 " clip-rule="nonzero"/></clipPath><clipPath id="5ddac5e17b"><path d="M 171.339844 146.375 L 224.8125 106.421875 L 280.027344 180.324219 L 226.554688 220.277344 Z M 171.339844 146.375 " clip-rule="nonzero"/></clipPath><clipPath id="445be2c8b4"><path d="M 178 145 L 185 145 L 185 153 L 178 153 Z M 178 145 " clip-rule="nonzero"/></clipPath><clipPath id="7985ce832b"><path d="M 171.339844 146.375 L 224.8125 106.421875 L 280.027344 180.324219 L 226.554688 220.277344 Z M 171.339844 146.375 " clip-rule="nonzero"/></clipPath><clipPath id="08bd17097a"><path d="M 171.339844 146.375 L 224.8125 106.421875 L 280.027344 180.324219 L 226.554688 220.277344 Z M 171.339844 146.375 " clip-rule="nonzero"/></clipPath><clipPath id="08126a394e"><path d="M 262 168 L 269 168 L 269 175 L 262 175 Z M 262 168 " clip-rule="nonzero"/></clipPath><clipPath id="16a272f912"><path d="M 171.339844 146.375 L 224.8125 106.421875 L 280.027344 180.324219 L 226.554688 220.277344 Z M 171.339844 146.375 " clip-rule="nonzero"/></clipPath><clipPath id="d3ba54dd07"><path d="M 171.339844 146.375 L 224.8125 106.421875 L 280.027344 180.324219 L 226.554688 220.277344 Z M 171.339844 146.375 " clip-rule="nonzero"/></clipPath><clipPath id="aa15024087"><path d="M 266 174 L 274 174 L 274 182 L 266 182 Z M 266 174 " clip-rule="nonzero"/></clipPath><clipPath id="1208c5a4ae"><path d="M 171.339844 146.375 L 224.8125 106.421875 L 280.027344 180.324219 L 226.554688 220.277344 Z M 171.339844 146.375 " clip-rule="nonzero"/></clipPath><clipPath id="b7a3fa245f"><path d="M 171.339844 146.375 L 224.8125 106.421875 L 280.027344 180.324219 L 226.554688 220.277344 Z M 171.339844 146.375 " clip-rule="nonzero"/></clipPath><clipPath id="8f3df154c4"><path d="M 214 150 L 242 150 L 242 179 L 214 179 Z M 214 150 " clip-rule="nonzero"/></clipPath><clipPath id="0441a27626"><path d="M 171.339844 146.375 L 224.8125 106.421875 L 280.027344 180.324219 L 226.554688 220.277344 Z M 171.339844 146.375 " clip-rule="nonzero"/></clipPath><clipPath id="c0e2652463"><path d="M 171.339844 146.375 L 224.8125 106.421875 L 280.027344 180.324219 L 226.554688 220.277344 Z M 171.339844 146.375 " clip-rule="nonzero"/></clipPath><clipPath id="ceb8f74eae"><path d="M 186 116 L 262 116 L 262 167 L 186 167 Z M 186 116 " clip-rule="nonzero"/></clipPath><clipPath id="671ca90244"><path d="M 171.339844 146.375 L 224.8125 106.421875 L 280.027344 180.324219 L 226.554688 220.277344 Z M 171.339844 146.375 " clip-rule="nonzero"/></clipPath><clipPath id="2458604c4b"><path d="M 171.339844 146.375 L 224.8125 106.421875 L 280.027344 180.324219 L 226.554688 220.277344 Z M 171.339844 146.375 " clip-rule="nonzero"/></clipPath><clipPath id="a79e6b988f"><path d="M 190 160 L 266 160 L 266 211 L 190 211 Z M 190 160 " clip-rule="nonzero"/></clipPath><clipPath id="c84d074585"><path d="M 171.339844 146.375 L 224.8125 106.421875 L 280.027344 180.324219 L 226.554688 220.277344 Z M 171.339844 146.375 " clip-rule="nonzero"/></clipPath><clipPath id="7794203b10"><path d="M 171.339844 146.375 L 224.8125 106.421875 L 280.027344 180.324219 L 226.554688 220.277344 Z M 171.339844 146.375 " clip-rule="nonzero"/></clipPath></defs><rect x="-37.5" width="450" fill="#ffffff" y="-37.499999" height="449.999989" fill-opacity="1"/><rect x="-37.5" width="450" fill="#02493e" y="-37.499999" height="449.999989" fill-opacity="1"/><g transform="matrix(1, 0, 0, 1, 100, 118)"><g clip-path="url(#3dc7d4a32a)"><g clip-path="url(#543b692154)"><g fill="#ede1d8" fill-opacity="1"><g transform="translate(16.451757, 55.07708)"><g><path d="M -15.625 -24.796875 C -15.625 -25.285156 -15.175781 -25.796875 -14.28125 -26.328125 C -13.394531 -26.867188 -12.273438 -27.394531 -10.921875 -27.90625 C -9.566406 -28.425781 -8.140625 -28.914062 -6.640625 -29.375 C -5.140625 -29.84375 -3.757812 -30.242188 -2.5 -30.578125 C -1.238281 -30.910156 -0.296875 -31.171875 0.328125 -31.359375 C 1.109375 -31.585938 1.65625 -31.71875 1.96875 -31.75 C 2.289062 -31.789062 2.492188 -31.910156 2.578125 -32.109375 C 2.671875 -32.316406 2.773438 -32.734375 2.890625 -33.359375 C 3.191406 -34.878906 3.535156 -35.925781 3.921875 -36.5 C 4.304688 -37.082031 4.6875 -37.375 5.0625 -37.375 C 5.351562 -37.375 5.597656 -37.210938 5.796875 -36.890625 C 6.003906 -36.578125 6.109375 -36.195312 6.109375 -35.75 C 6.109375 -35.414062 6.085938 -35.273438 6.046875 -35.328125 C 6.015625 -35.390625 6.019531 -35.273438 6.0625 -34.984375 C 6.0625 -34.898438 6.066406 -34.800781 6.078125 -34.6875 C 6.097656 -34.582031 6.109375 -34.4375 6.109375 -34.25 C 6.109375 -33.769531 6.015625 -33.53125 5.828125 -33.53125 C 5.648438 -33.53125 5.46875 -33.5 5.28125 -33.4375 C 5.09375 -33.382812 5 -33.0625 5 -32.46875 C 5.445312 -32.46875 5.9375 -32.53125 6.46875 -32.65625 C 7.007812 -32.789062 7.484375 -32.878906 7.890625 -32.921875 C 9.523438 -33.210938 11.15625 -33.476562 12.78125 -33.71875 C 14.414062 -33.96875 16.085938 -34.09375 17.796875 -34.09375 C 18.679688 -34.09375 19.328125 -33.90625 19.734375 -33.53125 C 20.148438 -33.15625 20.300781 -32.78125 20.1875 -32.40625 C 20.070312 -32.039062 19.664062 -31.859375 18.96875 -31.859375 C 18.894531 -32.160156 18.847656 -32.300781 18.828125 -32.28125 C 18.804688 -32.257812 18.628906 -32.285156 18.296875 -32.359375 C 18.148438 -32.398438 17.851562 -32.421875 17.40625 -32.421875 C 16.625 -32.421875 15.59375 -32.335938 14.3125 -32.171875 C 13.039062 -32.003906 11.71875 -31.804688 10.34375 -31.578125 C 8.96875 -31.359375 7.742188 -31.144531 6.671875 -30.9375 C 5.597656 -30.738281 4.894531 -30.601562 4.5625 -30.53125 L 3.453125 -19.125 C 3.410156 -18.863281 3.398438 -18.582031 3.421875 -18.28125 C 3.441406 -17.988281 3.453125 -17.695312 3.453125 -17.40625 C 3.453125 -17.03125 3.421875 -16.785156 3.359375 -16.671875 C 3.304688 -16.566406 3.28125 -16.3125 3.28125 -15.90625 C 3.28125 -15.09375 3.296875 -14.15625 3.328125 -13.09375 C 3.367188 -12.039062 3.351562 -11.21875 3.28125 -10.625 C 3.238281 -10.289062 3.207031 -9.628906 3.1875 -8.640625 C 3.175781 -7.660156 3.160156 -6.519531 3.140625 -5.21875 C 3.117188 -3.925781 3.109375 -2.617188 3.109375 -1.296875 C 3.109375 0.015625 3.109375 1.207031 3.109375 2.28125 C 3.109375 3.351562 3.128906 4.128906 3.171875 4.609375 C 3.171875 5.023438 3.21875 5.648438 3.3125 6.484375 C 3.40625 7.316406 3.421875 8.066406 3.359375 8.734375 C 3.304688 9.398438 3.039062 9.734375 2.5625 9.734375 C 1.851562 9.734375 1.425781 9.34375 1.28125 8.5625 C 1.132812 7.78125 1.0625 7.054688 1.0625 6.390625 C 0.945312 5.054688 0.878906 3.5 0.859375 1.71875 C 0.835938 -0.0625 0.835938 -1.835938 0.859375 -3.609375 C 0.878906 -5.390625 0.890625 -6.945312 0.890625 -8.28125 L 1.0625 -10.90625 C 1.0625 -11.414062 1.0625 -12.207031 1.0625 -13.28125 C 1.0625 -14.363281 1.078125 -15.503906 1.109375 -16.703125 C 1.148438 -17.910156 1.1875 -19.015625 1.21875 -20.015625 C 1.257812 -21.015625 1.316406 -21.71875 1.390625 -22.125 C 1.460938 -22.5 1.507812 -22.945312 1.53125 -23.46875 C 1.550781 -23.988281 1.578125 -24.429688 1.609375 -24.796875 L 2.109375 -29.96875 C 1.960938 -29.9375 1.640625 -29.863281 1.140625 -29.75 C 0.640625 -29.632812 0.238281 -29.539062 -0.0625 -29.46875 C -1.875 -29.03125 -3.601562 -28.554688 -5.25 -28.046875 C -6.90625 -27.546875 -8.601562 -26.960938 -10.34375 -26.296875 C -10.675781 -26.148438 -10.976562 -25.992188 -11.25 -25.828125 C -11.53125 -25.660156 -11.835938 -25.503906 -12.171875 -25.359375 C -12.617188 -25.171875 -12.90625 -25.039062 -13.03125 -24.96875 C -13.164062 -24.894531 -13.234375 -24.800781 -13.234375 -24.6875 C -13.234375 -24.582031 -13.328125 -24.34375 -13.515625 -23.96875 C -13.660156 -23.925781 -13.804688 -23.894531 -13.953125 -23.875 C -14.109375 -23.863281 -14.273438 -23.859375 -14.453125 -23.859375 C -14.753906 -23.859375 -15.023438 -23.921875 -15.265625 -24.046875 C -15.503906 -24.179688 -15.625 -24.429688 -15.625 -24.796875 Z M -15.625 -24.796875 "/></g></g></g></g><g fill="#ede1d8" fill-opacity="1"><g transform="translate(22.903196, 55.07708)"><g><path d="M -0.328125 -4.609375 L 0 -10.90625 C 0.0390625 -11.3125 0.078125 -11.800781 0.109375 -12.375 C 0.148438 -12.945312 0.1875 -13.4375 0.21875 -13.84375 C 0.289062 -15.695312 0.519531 -17.53125 0.90625 -19.34375 C 1.300781 -21.164062 1.722656 -22.96875 2.171875 -24.75 C 2.429688 -25.488281 2.632812 -25.976562 2.78125 -26.21875 C 2.925781 -26.457031 3.128906 -26.578125 3.390625 -26.578125 C 3.503906 -26.578125 3.632812 -26.566406 3.78125 -26.546875 C 3.925781 -26.535156 4.09375 -26.507812 4.28125 -26.46875 C 4.46875 -25.613281 4.429688 -24.601562 4.171875 -23.4375 C 3.910156 -22.269531 3.707031 -21.203125 3.5625 -20.234375 C 3.15625 -17.679688 2.820312 -14.863281 2.5625 -11.78125 C 2.300781 -8.707031 2.171875 -5.78125 2.171875 -3 L 2.328125 3.21875 L 2.78125 2.171875 C 3.300781 0.679688 3.734375 -0.566406 4.078125 -1.578125 C 4.429688 -2.597656 4.835938 -3.609375 5.296875 -4.609375 C 5.765625 -5.609375 6.390625 -6.832031 7.171875 -8.28125 C 7.578125 -9.019531 7.972656 -9.648438 8.359375 -10.171875 C 8.753906 -10.691406 9.359375 -10.953125 10.171875 -10.953125 C 10.578125 -10.953125 10.863281 -10.65625 11.03125 -10.0625 C 11.195312 -9.46875 11.300781 -8.816406 11.34375 -8.109375 C 11.382812 -7.410156 11.40625 -6.894531 11.40625 -6.5625 C 11.40625 -5.519531 11.429688 -4.640625 11.484375 -3.921875 C 11.535156 -3.203125 11.75 -2.488281 12.125 -1.78125 C 12.976562 -1.96875 13.703125 -2.515625 14.296875 -3.421875 C 14.890625 -4.328125 15.425781 -5.113281 15.90625 -5.78125 C 16.164062 -6.1875 16.40625 -6.59375 16.625 -7 C 16.84375 -7.414062 17.066406 -7.84375 17.296875 -8.28125 C 17.628906 -8.875 17.894531 -9.28125 18.09375 -9.5 C 18.300781 -9.726562 18.515625 -9.84375 18.734375 -9.84375 C 18.847656 -9.84375 19.054688 -9.804688 19.359375 -9.734375 C 19.535156 -9.066406 19.492188 -8.523438 19.234375 -8.109375 C 18.984375 -7.703125 18.707031 -7.222656 18.40625 -6.671875 C 18.144531 -6.191406 17.789062 -5.570312 17.34375 -4.8125 C 16.90625 -4.050781 16.40625 -3.304688 15.84375 -2.578125 C 15.289062 -1.859375 14.695312 -1.25 14.0625 -0.75 C 13.4375 -0.25 12.789062 0 12.125 0 C 10.894531 0 10.097656 -1.09375 9.734375 -3.28125 C 9.617188 -3.90625 9.539062 -4.742188 9.5 -5.796875 C 9.46875 -6.859375 9.453125 -7.78125 9.453125 -8.5625 C 9.191406 -8.375 8.875 -7.945312 8.5 -7.28125 C 8.132812 -6.613281 7.765625 -5.863281 7.390625 -5.03125 C 7.023438 -4.195312 6.679688 -3.390625 6.359375 -2.609375 C 6.046875 -1.835938 5.796875 -1.242188 5.609375 -0.828125 C 5.171875 0.316406 4.8125 1.460938 4.53125 2.609375 C 4.25 3.765625 3.941406 4.859375 3.609375 5.890625 C 3.429688 6.484375 3.21875 6.863281 2.96875 7.03125 C 2.726562 7.195312 2.347656 7.28125 1.828125 7.28125 C 1.421875 7.28125 1.085938 6.925781 0.828125 6.21875 C 0.566406 5.519531 0.351562 4.640625 0.1875 3.578125 C 0.0195312 2.523438 -0.0976562 1.429688 -0.171875 0.296875 C -0.242188 -0.828125 -0.285156 -1.84375 -0.296875 -2.75 C -0.316406 -3.65625 -0.328125 -4.273438 -0.328125 -4.609375 Z M -0.328125 -4.609375 "/></g></g></g><g fill="#ede1d8" fill-opacity="1"><g transform="translate(39.86604, 55.07708)"><g><path d="M 2.5625 -10.0625 C 3.257812 -10.4375 4.035156 -10.945312 4.890625 -11.59375 C 5.742188 -12.238281 6.207031 -13.007812 6.28125 -13.90625 C 5.800781 -13.832031 5.289062 -13.570312 4.75 -13.125 C 4.21875 -12.675781 3.753906 -12.171875 3.359375 -11.609375 C 2.972656 -11.054688 2.707031 -10.539062 2.5625 -10.0625 Z M 0.0625 -8.734375 C 0.0625 -9.660156 0.363281 -10.660156 0.96875 -11.734375 C 1.582031 -12.804688 2.34375 -13.722656 3.25 -14.484375 C 4.15625 -15.242188 5.054688 -15.625 5.953125 -15.625 C 7.171875 -15.625 7.804688 -15.160156 7.859375 -14.234375 C 7.921875 -13.304688 7.523438 -12.304688 6.671875 -11.234375 C 6.222656 -10.753906 5.554688 -10.195312 4.671875 -9.5625 C 3.785156 -8.9375 2.914062 -8.585938 2.0625 -8.515625 C 2.0625 -7.921875 2.078125 -7.390625 2.109375 -6.921875 C 2.148438 -6.460938 2.410156 -5.988281 2.890625 -5.5 C 3.367188 -5.019531 3.984375 -4.78125 4.734375 -4.78125 C 5.691406 -4.78125 6.6875 -5.085938 7.71875 -5.703125 C 8.757812 -6.316406 9.5625 -6.828125 10.125 -7.234375 C 10.34375 -7.410156 10.515625 -7.554688 10.640625 -7.671875 C 10.773438 -7.785156 10.9375 -7.914062 11.125 -8.0625 C 11.90625 -8.65625 12.394531 -9.085938 12.59375 -9.359375 C 12.800781 -9.640625 12.976562 -9.828125 13.125 -9.921875 C 13.269531 -10.015625 13.625 -10.0625 14.1875 -10.0625 C 14.257812 -9.65625 14.285156 -9.378906 14.265625 -9.234375 C 14.242188 -9.085938 14.101562 -8.863281 13.84375 -8.5625 C 13.175781 -7.894531 12.332031 -7.132812 11.3125 -6.28125 C 10.289062 -5.425781 9.195312 -4.679688 8.03125 -4.046875 C 6.863281 -3.421875 5.707031 -3.109375 4.5625 -3.109375 C 3.96875 -3.109375 3.398438 -3.207031 2.859375 -3.40625 C 2.328125 -3.613281 1.816406 -3.960938 1.328125 -4.453125 C 0.660156 -5.117188 0.28125 -5.800781 0.1875 -6.5 C 0.101562 -7.207031 0.0625 -7.953125 0.0625 -8.734375 Z M 0.0625 -8.734375 "/></g></g></g></g></g><g fill="#ede1d8" fill-opacity="1"><g transform="translate(132.693819, 258.720657)"><g><path d="M 3.921875 0 L 3.921875 -0.328125 C 4.191406 -0.328125 4.429688 -0.421875 4.640625 -0.609375 C 4.847656 -0.796875 4.953125 -1.144531 4.953125 -1.65625 L 4.953125 -14.15625 L 3.765625 -14.15625 C 3.128906 -14.15625 2.601562 -14.046875 2.1875 -13.828125 C 1.78125 -13.617188 1.4375 -13.320312 1.15625 -12.9375 C 0.882812 -12.5625 0.617188 -12.109375 0.359375 -11.578125 L 0 -11.578125 L 0.3125 -14.5 L 13.15625 -14.5 L 13.46875 -11.578125 L 13.109375 -11.578125 C 12.859375 -12.109375 12.59375 -12.5625 12.3125 -12.9375 C 12.03125 -13.320312 11.6875 -13.617188 11.28125 -13.828125 C 10.875 -14.046875 10.347656 -14.15625 9.703125 -14.15625 L 8.515625 -14.15625 L 8.515625 -1.65625 C 8.515625 -1.144531 8.617188 -0.796875 8.828125 -0.609375 C 9.035156 -0.421875 9.273438 -0.328125 9.546875 -0.328125 L 9.546875 0 Z M 3.921875 0 "/></g></g></g><g fill="#ede1d8" fill-opacity="1"><g transform="translate(146.036141, 258.720657)"><g><path d="M 3.125 0 L 0 0 L 0 -0.359375 C 0.28125 -0.359375 0.523438 -0.441406 0.734375 -0.609375 C 0.953125 -0.785156 1.0625 -1.132812 1.0625 -1.65625 L 1.0625 -12.84375 C 1.0625 -13.375 0.953125 -13.722656 0.734375 -13.890625 C 0.523438 -14.066406 0.28125 -14.15625 0 -14.15625 L 0 -14.5 C 0.6875 -14.53125 1.410156 -14.644531 2.171875 -14.84375 C 2.941406 -15.039062 3.609375 -15.253906 4.171875 -15.484375 L 4.171875 -8.015625 C 4.578125 -8.335938 4.976562 -8.628906 5.375 -8.890625 C 5.78125 -9.160156 6.175781 -9.398438 6.5625 -9.609375 C 6.988281 -9.847656 7.410156 -10.03125 7.828125 -10.15625 C 8.253906 -10.289062 8.675781 -10.359375 9.09375 -10.359375 C 9.769531 -10.359375 10.273438 -10.226562 10.609375 -9.96875 C 10.941406 -9.71875 11.160156 -9.367188 11.265625 -8.921875 C 11.367188 -8.472656 11.421875 -7.957031 11.421875 -7.375 L 11.421875 -1.65625 C 11.421875 -1.132812 11.523438 -0.785156 11.734375 -0.609375 C 11.953125 -0.441406 12.191406 -0.359375 12.453125 -0.359375 L 12.453125 0 L 9.34375 0 C 9.082031 0 8.84375 -0.0859375 8.625 -0.265625 C 8.414062 -0.441406 8.3125 -0.789062 8.3125 -1.3125 L 8.3125 -6.84375 C 8.3125 -7.625 8.128906 -8.160156 7.765625 -8.453125 C 7.410156 -8.753906 6.96875 -8.863281 6.4375 -8.78125 C 5.90625 -8.695312 5.367188 -8.460938 4.828125 -8.078125 C 4.710938 -7.992188 4.597656 -7.914062 4.484375 -7.84375 C 4.378906 -7.769531 4.273438 -7.691406 4.171875 -7.609375 L 4.171875 -1.3125 C 4.171875 -0.789062 4.066406 -0.441406 3.859375 -0.265625 C 3.648438 -0.0859375 3.40625 0 3.125 0 Z M 3.125 0 "/></g></g></g><g fill="#ede1d8" fill-opacity="1"><g transform="translate(157.990307, 258.720657)"><g><path d="M 10.359375 -7.234375 C 10.359375 -7.804688 10.195312 -8.289062 9.875 -8.6875 C 9.550781 -9.09375 9.132812 -9.414062 8.625 -9.65625 C 8.125 -9.90625 7.597656 -10.082031 7.046875 -10.1875 C 6.503906 -10.300781 6.003906 -10.359375 5.546875 -10.359375 C 4.546875 -10.359375 3.625 -10.144531 2.78125 -9.71875 C 1.9375 -9.289062 1.257812 -8.6875 0.75 -7.90625 C 0.25 -7.132812 0 -6.226562 0 -5.1875 C 0 -4.175781 0.238281 -3.28125 0.71875 -2.5 C 1.207031 -1.71875 1.863281 -1.101562 2.6875 -0.65625 C 3.507812 -0.21875 4.410156 0 5.390625 0 C 6.085938 0 6.765625 -0.113281 7.421875 -0.34375 C 8.078125 -0.582031 8.664062 -0.925781 9.1875 -1.375 C 9.707031 -1.820312 10.097656 -2.375 10.359375 -3.03125 L 10.15625 -3.1875 C 9.5625 -2.757812 8.992188 -2.515625 8.453125 -2.453125 C 7.910156 -2.390625 7.472656 -2.453125 7.140625 -2.640625 C 6.816406 -2.828125 6.664062 -3.070312 6.6875 -3.375 C 6.71875 -3.695312 6.847656 -3.953125 7.078125 -4.140625 C 7.316406 -4.335938 7.582031 -4.492188 7.875 -4.609375 C 8.175781 -4.722656 8.445312 -4.835938 8.6875 -4.953125 C 9.125 -5.160156 9.507812 -5.441406 9.84375 -5.796875 C 10.1875 -6.160156 10.359375 -6.640625 10.359375 -7.234375 Z M 4.203125 -9.328125 C 4.617188 -9.703125 5.035156 -9.914062 5.453125 -9.96875 C 5.867188 -10.03125 6.226562 -9.960938 6.53125 -9.765625 C 6.84375 -9.578125 7.0625 -9.285156 7.1875 -8.890625 C 7.320312 -8.503906 7.316406 -8.039062 7.171875 -7.5 C 7.097656 -7.238281 6.984375 -6.988281 6.828125 -6.75 C 6.679688 -6.519531 6.53125 -6.285156 6.375 -6.046875 C 5.945312 -5.367188 5.742188 -4.6875 5.765625 -4 C 5.785156 -3.3125 6.175781 -2.738281 6.9375 -2.28125 C 6.132812 -2.3125 5.382812 -2.535156 4.6875 -2.953125 C 3.988281 -3.367188 3.5 -3.976562 3.21875 -4.78125 C 3.03125 -5.289062 2.941406 -5.828125 2.953125 -6.390625 C 2.960938 -6.960938 3.070312 -7.503906 3.28125 -8.015625 C 3.5 -8.523438 3.804688 -8.960938 4.203125 -9.328125 Z M 4.203125 -9.328125 "/></g></g></g><g fill="#ede1d8" fill-opacity="1"><g transform="translate(167.810435, 258.720657)"><g/></g></g><g fill="#ede1d8" fill-opacity="1"><g transform="translate(172.575171, 258.720657)"><g><path d="M 3.15625 -1.0625 C 3.257812 -0.75 3.414062 -0.550781 3.625 -0.46875 C 3.84375 -0.394531 4.101562 -0.359375 4.40625 -0.359375 L 4.40625 0 L 0 0 L 0 -0.359375 C 0.351562 -0.359375 0.644531 -0.445312 0.875 -0.625 C 1.101562 -0.8125 1.285156 -1.066406 1.421875 -1.390625 L 6.359375 -14.5 L 7.875 -14.5 L 12.78125 -1.421875 C 12.9375 -1.023438 13.109375 -0.75 13.296875 -0.59375 C 13.492188 -0.4375 13.804688 -0.359375 14.234375 -0.359375 L 14.234375 0 L 8.265625 0 L 8.265625 -0.359375 C 8.585938 -0.359375 8.828125 -0.425781 8.984375 -0.5625 C 9.148438 -0.707031 9.164062 -0.945312 9.03125 -1.28125 L 8.1875 -3.609375 L 2.625 -3.609375 C 2.53125 -3.390625 2.488281 -3.164062 2.5 -2.9375 C 2.519531 -2.707031 2.578125 -2.472656 2.671875 -2.234375 Z M 2.75 -3.953125 L 8.015625 -3.953125 L 5.390625 -10.984375 Z M 2.75 -3.953125 "/></g></g></g><g fill="#ede1d8" fill-opacity="1"><g transform="translate(186.704813, 258.720657)"><g><path d="M 8.3125 0 C 8.03125 0 7.78125 -0.0859375 7.5625 -0.265625 C 7.351562 -0.441406 7.25 -0.789062 7.25 -1.3125 L 7.25 -1.546875 C 6.257812 -0.515625 5.222656 0 4.140625 0 C 3.453125 0 2.789062 -0.195312 2.15625 -0.59375 C 1.519531 -0.988281 1 -1.570312 0.59375 -2.34375 C 0.195312 -3.113281 0 -4.0625 0 -5.1875 C 0 -6.132812 0.144531 -7 0.4375 -7.78125 C 0.726562 -8.5625 1.160156 -9.1875 1.734375 -9.65625 C 2.304688 -10.125 3.035156 -10.359375 3.921875 -10.359375 C 4.441406 -10.359375 4.914062 -10.25 5.34375 -10.03125 C 5.769531 -9.820312 6.144531 -9.5625 6.46875 -9.25 C 6.800781 -8.9375 7.0625 -8.628906 7.25 -8.328125 L 7.25 -15.484375 C 7.8125 -15.253906 8.472656 -15.039062 9.234375 -14.84375 C 9.992188 -14.644531 10.722656 -14.53125 11.421875 -14.5 L 11.421875 -14.15625 C 11.140625 -14.15625 10.890625 -14.066406 10.671875 -13.890625 C 10.460938 -13.722656 10.359375 -13.375 10.359375 -12.84375 L 10.359375 -1.65625 C 10.359375 -1.132812 10.460938 -0.785156 10.671875 -0.609375 C 10.890625 -0.441406 11.140625 -0.359375 11.421875 -0.359375 L 11.421875 0 Z M 7.25 -7.6875 C 6.90625 -8.351562 6.46875 -8.816406 5.9375 -9.078125 C 5.414062 -9.347656 4.925781 -9.332031 4.46875 -9.03125 C 4.125 -8.820312 3.851562 -8.492188 3.65625 -8.046875 C 3.457031 -7.609375 3.316406 -7.144531 3.234375 -6.65625 C 3.148438 -6.164062 3.109375 -5.734375 3.109375 -5.359375 C 3.109375 -4.679688 3.179688 -4.015625 3.328125 -3.359375 C 3.472656 -2.703125 3.738281 -2.175781 4.125 -1.78125 C 4.601562 -1.3125 5.132812 -1.125 5.71875 -1.21875 C 6.3125 -1.320312 6.820312 -1.597656 7.25 -2.046875 Z M 7.25 -7.6875 "/></g></g></g><g fill="#ede1d8" fill-opacity="1"><g transform="translate(197.623036, 258.720657)"><g><path d="M 3.109375 0 L 0 0 L 0 -0.359375 C 0.28125 -0.359375 0.523438 -0.441406 0.734375 -0.609375 C 0.953125 -0.785156 1.0625 -1.132812 1.0625 -1.65625 L 1.0625 -7.734375 C 1.0625 -8.253906 0.953125 -8.597656 0.734375 -8.765625 C 0.523438 -8.941406 0.28125 -9.03125 0 -9.03125 L 0 -9.390625 C 0.6875 -9.410156 1.410156 -9.519531 2.171875 -9.71875 C 2.929688 -9.925781 3.597656 -10.140625 4.171875 -10.359375 L 4.171875 -8.328125 C 4.515625 -8.578125 4.847656 -8.804688 5.171875 -9.015625 C 5.492188 -9.234375 5.8125 -9.429688 6.125 -9.609375 C 6.570312 -9.847656 7 -10.03125 7.40625 -10.15625 C 7.820312 -10.289062 8.238281 -10.359375 8.65625 -10.359375 C 9.476562 -10.359375 10.050781 -10.164062 10.375 -9.78125 C 10.695312 -9.40625 10.882812 -8.914062 10.9375 -8.3125 C 11.300781 -8.5625 11.644531 -8.796875 11.96875 -9.015625 C 12.300781 -9.234375 12.628906 -9.429688 12.953125 -9.609375 C 13.390625 -9.847656 13.816406 -10.03125 14.234375 -10.15625 C 14.648438 -10.289062 15.070312 -10.359375 15.5 -10.359375 C 16.175781 -10.359375 16.675781 -10.226562 17 -9.96875 C 17.332031 -9.71875 17.550781 -9.367188 17.65625 -8.921875 C 17.757812 -8.472656 17.8125 -7.957031 17.8125 -7.375 L 17.8125 -1.65625 C 17.8125 -1.132812 17.914062 -0.785156 18.125 -0.609375 C 18.332031 -0.441406 18.578125 -0.359375 18.859375 -0.359375 L 18.859375 0 L 15.75 0 C 15.46875 0 15.222656 -0.0859375 15.015625 -0.265625 C 14.804688 -0.441406 14.703125 -0.789062 14.703125 -1.3125 L 14.703125 -6.84375 C 14.703125 -7.625 14.523438 -8.160156 14.171875 -8.453125 C 13.816406 -8.753906 13.367188 -8.863281 12.828125 -8.78125 C 12.296875 -8.695312 11.765625 -8.460938 11.234375 -8.078125 C 11.191406 -8.046875 11.148438 -8.015625 11.109375 -7.984375 C 11.066406 -7.953125 11.023438 -7.921875 10.984375 -7.890625 C 10.984375 -7.804688 10.984375 -7.722656 10.984375 -7.640625 C 10.984375 -7.554688 10.984375 -7.46875 10.984375 -7.375 L 10.984375 -1.65625 C 10.984375 -1.132812 11.085938 -0.785156 11.296875 -0.609375 C 11.515625 -0.441406 11.757812 -0.359375 12.03125 -0.359375 L 12.03125 0 L 6.84375 0 L 6.84375 -0.359375 C 7.113281 -0.359375 7.351562 -0.441406 7.5625 -0.609375 C 7.769531 -0.785156 7.875 -1.132812 7.875 -1.65625 L 7.875 -6.84375 C 7.875 -7.625 7.691406 -8.160156 7.328125 -8.453125 C 6.972656 -8.753906 6.53125 -8.863281 6 -8.78125 C 5.46875 -8.695312 4.929688 -8.460938 4.390625 -8.078125 C 4.347656 -8.046875 4.304688 -8.015625 4.265625 -7.984375 C 4.222656 -7.960938 4.191406 -7.941406 4.171875 -7.921875 L 4.171875 -1.3125 C 4.171875 -0.789062 4.0625 -0.441406 3.84375 -0.265625 C 3.625 -0.0859375 3.378906 0 3.109375 0 Z M 3.109375 0 "/></g></g></g><g fill="#ede1d8" fill-opacity="1"><g transform="translate(215.937874, 258.720657)"><g><path d="M 2.59375 -13.484375 C 3.03125 -13.484375 3.394531 -13.332031 3.6875 -13.03125 C 3.988281 -12.726562 4.140625 -12.363281 4.140625 -11.9375 C 4.140625 -11.507812 3.988281 -11.140625 3.6875 -10.828125 C 3.394531 -10.523438 3.03125 -10.375 2.59375 -10.375 C 2.164062 -10.375 1.796875 -10.523438 1.484375 -10.828125 C 1.179688 -11.140625 1.03125 -11.507812 1.03125 -11.9375 C 1.03125 -12.363281 1.179688 -12.726562 1.484375 -13.03125 C 1.796875 -13.332031 2.164062 -13.484375 2.59375 -13.484375 Z M 0 0 L 0 -0.359375 C 0.28125 -0.359375 0.519531 -0.441406 0.71875 -0.609375 C 0.925781 -0.785156 1.03125 -1.132812 1.03125 -1.65625 L 1.03125 -7.734375 C 1.03125 -8.253906 0.925781 -8.597656 0.71875 -8.765625 C 0.519531 -8.941406 0.28125 -9.03125 0 -9.03125 L 0 -9.390625 C 0.6875 -9.410156 1.410156 -9.519531 2.171875 -9.71875 C 2.929688 -9.925781 3.585938 -10.140625 4.140625 -10.359375 L 4.140625 -1.65625 C 4.140625 -1.132812 4.242188 -0.785156 4.453125 -0.609375 C 4.671875 -0.441406 4.921875 -0.359375 5.203125 -0.359375 L 5.203125 0 Z M 0 0 "/></g></g></g><g fill="#ede1d8" fill-opacity="1"><g transform="translate(220.599018, 258.720657)"><g><path d="M 1.03125 -10 L 0 -10 L 0 -10.359375 C 0.46875 -10.390625 0.976562 -10.515625 1.53125 -10.734375 C 2.082031 -10.960938 2.597656 -11.269531 3.078125 -11.65625 C 3.566406 -12.050781 3.921875 -12.492188 4.140625 -12.984375 L 4.140625 -10.359375 L 5.796875 -10.359375 L 5.796875 -10 L 4.140625 -10 L 4.140625 -3.1875 C 4.140625 -1.695312 4.734375 -1.015625 5.921875 -1.140625 L 5.921875 -0.765625 L 5.90625 -0.75 C 5.476562 -0.53125 5.050781 -0.347656 4.625 -0.203125 C 4.207031 -0.0664062 3.785156 0 3.359375 0 C 2.679688 0 2.179688 -0.125 1.859375 -0.375 C 1.535156 -0.632812 1.316406 -0.992188 1.203125 -1.453125 C 1.085938 -1.910156 1.03125 -2.421875 1.03125 -2.984375 Z M 1.03125 -10 "/></g></g></g><g fill="#ede1d8" fill-opacity="1"><g transform="translate(225.985317, 258.720657)"><g/></g></g><g fill="#ede1d8" fill-opacity="1"><g transform="translate(230.750052, 258.720657)"><g><path d="M 12.40625 -10.109375 C 12.40625 -9.503906 12.273438 -8.988281 12.015625 -8.5625 C 11.765625 -8.144531 11.4375 -7.820312 11.03125 -7.59375 C 10.632812 -7.375 10.203125 -7.257812 9.734375 -7.25 C 9.085938 -7.21875 8.550781 -7.378906 8.125 -7.734375 C 7.695312 -8.085938 7.441406 -8.601562 7.359375 -9.28125 C 8.003906 -9.269531 8.503906 -9.492188 8.859375 -9.953125 C 9.210938 -10.421875 9.378906 -10.960938 9.359375 -11.578125 C 9.347656 -12.210938 9.222656 -12.726562 8.984375 -13.125 C 8.753906 -13.519531 8.445312 -13.800781 8.0625 -13.96875 C 7.6875 -14.132812 7.285156 -14.191406 6.859375 -14.140625 C 6.429688 -14.085938 6.023438 -13.9375 5.640625 -13.6875 C 4.960938 -13.25 4.445312 -12.601562 4.09375 -11.75 C 3.75 -10.894531 3.546875 -9.984375 3.484375 -9.015625 C 3.441406 -7.867188 3.59375 -6.800781 3.9375 -5.8125 C 4.289062 -4.832031 4.832031 -4.039062 5.5625 -3.4375 C 6.289062 -2.84375 7.171875 -2.53125 8.203125 -2.5 C 8.929688 -2.488281 9.65625 -2.644531 10.375 -2.96875 C 11.09375 -3.289062 11.695312 -3.785156 12.1875 -4.453125 L 12.40625 -4.25 C 12.101562 -3.332031 11.640625 -2.554688 11.015625 -1.921875 C 10.398438 -1.285156 9.695312 -0.804688 8.90625 -0.484375 C 8.125 -0.160156 7.3125 0 6.46875 0 C 5.582031 0 4.75 -0.175781 3.96875 -0.53125 C 3.1875 -0.882812 2.5 -1.382812 1.90625 -2.03125 C 1.3125 -2.675781 0.84375 -3.441406 0.5 -4.328125 C 0.164062 -5.210938 0 -6.1875 0 -7.25 C 0 -8.351562 0.1875 -9.347656 0.5625 -10.234375 C 0.9375 -11.128906 1.441406 -11.894531 2.078125 -12.53125 C 2.722656 -13.164062 3.457031 -13.648438 4.28125 -13.984375 C 5.113281 -14.328125 5.988281 -14.5 6.90625 -14.5 C 7.4375 -14.5 8.019531 -14.429688 8.65625 -14.296875 C 9.289062 -14.160156 9.890625 -13.925781 10.453125 -13.59375 C 11.023438 -13.257812 11.492188 -12.804688 11.859375 -12.234375 C 12.222656 -11.671875 12.40625 -10.960938 12.40625 -10.109375 Z M 12.40625 -10.109375 "/></g></g></g><g fill="#ede1d8" fill-opacity="1"><g transform="translate(243.056433, 258.720657)"><g><path d="M 5.1875 -10.359375 C 6.132812 -10.359375 7 -10.125 7.78125 -9.65625 C 8.570312 -9.195312 9.195312 -8.570312 9.65625 -7.78125 C 10.125 -7 10.359375 -6.132812 10.359375 -5.1875 C 10.359375 -4.226562 10.125 -3.359375 9.65625 -2.578125 C 9.195312 -1.796875 8.570312 -1.171875 7.78125 -0.703125 C 7 -0.234375 6.132812 0 5.1875 0 C 4.226562 0 3.359375 -0.234375 2.578125 -0.703125 C 1.796875 -1.171875 1.171875 -1.796875 0.703125 -2.578125 C 0.234375 -3.359375 0 -4.226562 0 -5.1875 C 0 -6.132812 0.234375 -7 0.703125 -7.78125 C 1.171875 -8.570312 1.796875 -9.195312 2.578125 -9.65625 C 3.359375 -10.125 4.226562 -10.359375 5.1875 -10.359375 Z M 5.1875 -10 C 4.8125 -10 4.460938 -9.78125 4.140625 -9.34375 C 3.828125 -8.914062 3.578125 -8.335938 3.390625 -7.609375 C 3.203125 -6.890625 3.109375 -6.082031 3.109375 -5.1875 C 3.109375 -4.300781 3.203125 -3.488281 3.390625 -2.75 C 3.578125 -2.019531 3.828125 -1.4375 4.140625 -1 C 4.460938 -0.570312 4.8125 -0.359375 5.1875 -0.359375 C 5.570312 -0.359375 5.914062 -0.570312 6.21875 -1 C 6.53125 -1.4375 6.78125 -2.019531 6.96875 -2.75 C 7.15625 -3.488281 7.25 -4.300781 7.25 -5.1875 C 7.25 -6.082031 7.15625 -6.890625 6.96875 -7.609375 C 6.78125 -8.335938 6.53125 -8.914062 6.21875 -9.34375 C 5.914062 -9.78125 5.570312 -10 5.1875 -10 Z M 5.1875 -10 "/></g></g></g><g fill="#ede1d8" fill-opacity="1"><g transform="translate(252.876562, 258.720657)"><g><path d="M 1.78125 -3.5625 C 2.257812 -3.5625 2.675781 -3.382812 3.03125 -3.03125 C 3.382812 -2.675781 3.5625 -2.257812 3.5625 -1.78125 C 3.5625 -1.28125 3.382812 -0.859375 3.03125 -0.515625 C 2.675781 -0.171875 2.257812 0 1.78125 0 C 1.28125 0 0.859375 -0.171875 0.515625 -0.515625 C 0.171875 -0.859375 0 -1.28125 0 -1.78125 C 0 -2.257812 0.171875 -2.675781 0.515625 -3.03125 C 0.859375 -3.382812 1.28125 -3.5625 1.78125 -3.5625 Z M 1.78125 -3.5625 "/></g></g></g><g clip-path="url(#a23f60cdee)"><g clip-path="url(#b38f1b6509)"><g clip-path="url(#8598925675)"><path fill="#ede1d8" d="M 227.503906 109.617188 L 277.941406 177.125 C 279.304688 178.949219 278.929688 181.535156 277.105469 182.898438 L 230.046875 218.0625 C 228.21875 219.425781 225.632812 219.050781 224.269531 217.226562 L 173.832031 149.71875 C 172.46875 147.894531 172.84375 145.308594 174.667969 143.941406 L 221.726562 108.78125 C 223.554688 107.417969 226.140625 107.792969 227.503906 109.617188 " fill-opacity="1" fill-rule="nonzero"/></g></g></g><g clip-path="url(#2720f7da4a)"><g clip-path="url(#a0434dccda)"><g clip-path="url(#923c8592a3)"><path fill="#02493e" d="M 229.320312 217.089844 C 228.035156 218.050781 226.203125 217.789062 225.242188 216.5 L 174.804688 148.996094 C 173.839844 147.707031 174.105469 145.875 175.394531 144.914062 L 222.453125 109.753906 C 223.742188 108.789062 225.570312 109.054688 226.535156 110.34375 L 276.972656 177.847656 C 277.933594 179.136719 277.667969 180.964844 276.382812 181.929688 L 229.320312 217.089844 " fill-opacity="1" fill-rule="nonzero"/></g></g></g><g clip-path="url(#37336d0b34)"><g clip-path="url(#b8cc8cad89)"><g clip-path="url(#5ddac5e17b)"><path fill="#ede1d8" d="M 187.882812 153.558594 C 187.472656 153.378906 187.015625 153.417969 186.574219 153.410156 C 186.195312 153.402344 185.816406 153.363281 185.441406 153.285156 C 184.976562 153.191406 184.003906 152.804688 183.980469 152.785156 C 183.980469 152.78125 183.976562 152.785156 183.976562 152.785156 C 183.992188 152.816406 184.085938 153.855469 184.042969 154.328125 C 184.011719 154.707031 183.945312 155.085938 183.84375 155.449219 C 183.726562 155.875 183.558594 156.300781 183.613281 156.75 C 183.664062 157.140625 183.851562 157.519531 184.148438 157.78125 C 184.773438 158.328125 185.859375 158.324219 186.375 157.632812 C 186.511719 157.449219 186.613281 157.238281 186.691406 157.023438 C 186.695312 157.007812 186.714844 156.960938 186.734375 156.90625 C 186.839844 157.332031 186.816406 157.859375 186.769531 158.125 C 186.757812 158.195312 186.839844 158.246094 186.898438 158.203125 L 188.347656 157.117188 C 188.40625 157.074219 188.382812 156.980469 188.308594 156.972656 C 188.039062 156.941406 187.535156 156.816406 187.15625 156.597656 C 187.210938 156.59375 187.257812 156.585938 187.273438 156.585938 C 187.503906 156.574219 187.734375 156.535156 187.949219 156.453125 C 188.757812 156.15625 189.070312 155.117188 188.722656 154.367188 C 188.558594 154.003906 188.246094 153.714844 187.882812 153.558594 " fill-opacity="1" fill-rule="nonzero"/></g></g></g><g clip-path="url(#445be2c8b4)"><g clip-path="url(#7985ce832b)"><g clip-path="url(#08bd17097a)"><path fill="#ede1d8" d="M 181.667969 147.996094 L 179.933594 146.816406 C 179.542969 146.542969 179.214844 146.277344 178.898438 146.019531 L 178.878906 146.035156 C 179.039062 146.417969 179.207031 146.820312 179.347656 147.238281 L 180 149.246094 Z M 180.269531 149.910156 L 180.996094 152.074219 L 180.257812 152.625 L 178.007812 145.699219 L 178.867188 145.054688 L 184.882812 149.171875 L 184.121094 149.742188 L 182.230469 148.449219 L 180.269531 149.910156 " fill-opacity="1" fill-rule="nonzero"/></g></g></g><g clip-path="url(#08126a394e)"><g clip-path="url(#16a272f912)"><g clip-path="url(#d3ba54dd07)"><path fill="#ede1d8" d="M 263.890625 173.285156 C 264.300781 173.464844 264.761719 173.425781 265.199219 173.433594 C 265.578125 173.441406 265.960938 173.480469 266.332031 173.558594 C 266.796875 173.652344 267.769531 174.035156 267.792969 174.058594 C 267.792969 174.058594 267.796875 174.058594 267.796875 174.058594 C 267.78125 174.027344 267.6875 172.988281 267.730469 172.511719 C 267.761719 172.132812 267.828125 171.757812 267.933594 171.390625 C 268.050781 170.96875 268.214844 170.539062 268.160156 170.09375 C 268.113281 169.699219 267.925781 169.320312 267.625 169.058594 C 267 168.515625 265.914062 168.519531 265.402344 169.210938 C 265.261719 169.394531 265.160156 169.605469 265.085938 169.820312 C 265.078125 169.835938 265.058594 169.882812 265.039062 169.933594 C 264.933594 169.507812 264.957031 168.984375 265.003906 168.71875 C 265.015625 168.644531 264.933594 168.597656 264.875 168.640625 L 263.425781 169.722656 C 263.367188 169.765625 263.390625 169.859375 263.464844 169.867188 C 263.734375 169.898438 264.238281 170.023438 264.621094 170.246094 C 264.5625 170.25 264.515625 170.253906 264.5 170.257812 C 264.269531 170.269531 264.039062 170.308594 263.824219 170.386719 C 263.015625 170.683594 262.707031 171.722656 263.050781 172.476562 C 263.214844 172.839844 263.527344 173.125 263.890625 173.285156 " fill-opacity="1" fill-rule="nonzero"/></g></g></g><g clip-path="url(#aa15024087)"><g clip-path="url(#1208c5a4ae)"><g clip-path="url(#b7a3fa245f)"><path fill="#ede1d8" d="M 270.105469 178.84375 L 271.839844 180.027344 C 272.230469 180.296875 272.558594 180.566406 272.878906 180.824219 L 272.898438 180.808594 C 272.734375 180.425781 272.570312 180.023438 272.425781 179.605469 L 271.773438 177.597656 Z M 271.503906 176.933594 L 270.777344 174.769531 L 271.515625 174.214844 L 273.765625 181.144531 L 272.90625 181.785156 L 266.890625 177.671875 L 267.65625 177.101562 L 269.542969 178.394531 L 271.503906 176.933594 " fill-opacity="1" fill-rule="nonzero"/></g></g></g><g clip-path="url(#8f3df154c4)"><g clip-path="url(#0441a27626)"><g clip-path="url(#c0e2652463)"><path fill="#ede1d8" d="M 236.625 154.84375 C 234.503906 153.917969 232.140625 154.113281 229.878906 154.078125 C 227.917969 154.042969 225.960938 153.828125 224.039062 153.4375 C 221.640625 152.953125 216.636719 150.96875 216.503906 150.855469 C 216.5 150.847656 216.492188 150.855469 216.496094 150.859375 C 216.566406 151.019531 217.050781 156.382812 216.839844 158.820312 C 216.667969 160.773438 216.320312 162.710938 215.792969 164.601562 C 215.1875 166.78125 214.332031 168.988281 214.617188 171.285156 C 214.867188 173.316406 215.832031 175.269531 217.382812 176.617188 C 220.601562 179.421875 226.183594 179.410156 228.835938 175.847656 C 229.546875 174.894531 230.078125 173.8125 230.472656 172.699219 C 230.5 172.625 230.601562 172.378906 230.707031 172.105469 C 231.238281 174.300781 231.117188 177.003906 230.878906 178.375 C 230.816406 178.746094 231.238281 179.007812 231.542969 178.78125 L 239.011719 173.199219 C 239.316406 172.972656 239.1875 172.492188 238.8125 172.449219 C 237.429688 172.289062 234.820312 171.644531 232.863281 170.503906 C 233.148438 170.484375 233.40625 170.453125 233.484375 170.449219 C 234.664062 170.382812 235.851562 170.183594 236.964844 169.773438 C 241.136719 168.242188 242.730469 162.886719 240.953125 159.003906 C 240.097656 157.140625 238.5 155.65625 236.625 154.84375 " fill-opacity="1" fill-rule="nonzero"/></g></g></g><g clip-path="url(#ceb8f74eae)"><g clip-path="url(#671ca90244)"><g clip-path="url(#2458604c4b)"><path fill="#ede1d8" d="M 261.523438 166.214844 C 261.363281 166.335938 261.140625 166.300781 261.019531 166.144531 L 224.8125 117.679688 C 224.152344 116.800781 222.902344 116.621094 222.023438 117.277344 L 187.019531 143.433594 C 186.859375 143.550781 186.632812 143.519531 186.515625 143.359375 C 186.398438 143.199219 186.429688 142.976562 186.589844 142.859375 L 221.59375 116.703125 C 222.792969 115.808594 224.492188 116.054688 225.386719 117.25 L 261.59375 165.714844 C 261.714844 165.871094 261.683594 166.097656 261.523438 166.214844 " fill-opacity="1" fill-rule="nonzero"/></g></g></g><g clip-path="url(#a79e6b988f)"><g clip-path="url(#c84d074585)"><g clip-path="url(#7794203b10)"><path fill="#ede1d8" d="M 265.183594 183.984375 L 230.179688 210.140625 C 228.980469 211.035156 227.28125 210.789062 226.386719 209.589844 L 190.367188 161.378906 C 190.246094 161.222656 190.28125 160.996094 190.4375 160.878906 C 190.597656 160.761719 190.824219 160.792969 190.941406 160.949219 L 226.960938 209.164062 C 227.621094 210.042969 228.871094 210.222656 229.75 209.566406 L 264.753906 183.410156 C 264.914062 183.292969 265.136719 183.324219 265.257812 183.484375 C 265.375 183.640625 265.34375 183.867188 265.183594 183.984375 " fill-opacity="1" fill-rule="nonzero"/></g></g></g><path fill="#02493e" d="M 94.941406 195.128906 L 277.109375 195.128906 L 277.109375 243.878906 L 94.941406 243.878906 L 94.941406 195.128906 " fill-opacity="1" fill-rule="nonzero"/><g fill="#ede1d8" fill-opacity="1"><g transform="translate(94.941706, 231.127763)"><g><path d="M 7.421875 -2.484375 C 7.679688 -1.773438 8.0625 -1.320312 8.5625 -1.125 C 9.0625 -0.925781 9.671875 -0.828125 10.390625 -0.828125 L 10.390625 0 L 0 0 L 0 -0.828125 C 0.84375 -0.828125 1.53125 -1.046875 2.0625 -1.484375 C 2.601562 -1.921875 3.035156 -2.515625 3.359375 -3.265625 L 14.96875 -34.140625 L 18.53125 -34.140625 L 30.09375 -3.359375 C 30.457031 -2.421875 30.863281 -1.765625 31.3125 -1.390625 C 31.769531 -1.015625 32.503906 -0.828125 33.515625 -0.828125 L 33.515625 0 L 19.46875 0 L 19.46875 -0.828125 C 20.207031 -0.828125 20.769531 -1 21.15625 -1.34375 C 21.550781 -1.6875 21.585938 -2.25 21.265625 -3.03125 L 19.265625 -8.484375 L 6.1875 -8.484375 C 5.96875 -7.960938 5.875 -7.429688 5.90625 -6.890625 C 5.9375 -6.359375 6.066406 -5.816406 6.296875 -5.265625 Z M 6.484375 -9.3125 L 18.875 -9.3125 L 12.6875 -25.859375 Z M 6.484375 -9.3125 "/></g></g></g><g fill="#ede1d8" fill-opacity="1"><g transform="translate(127.911892, 231.127763)"><g><path d="M 24.34375 -17.03125 C 24.34375 -15.46875 23.804688 -14.28125 22.734375 -13.46875 C 21.660156 -12.65625 20.441406 -12.210938 19.078125 -12.140625 C 17.804688 -12.109375 16.691406 -12.441406 15.734375 -13.140625 C 14.773438 -13.847656 14.242188 -14.867188 14.140625 -16.203125 C 15.117188 -16.203125 15.859375 -16.554688 16.359375 -17.265625 C 16.867188 -17.984375 17.125 -18.78125 17.125 -19.65625 C 17.15625 -20.832031 16.925781 -21.726562 16.4375 -22.34375 C 15.945312 -22.957031 15.320312 -23.328125 14.5625 -23.453125 C 13.800781 -23.585938 13.003906 -23.515625 12.171875 -23.234375 C 11.335938 -22.960938 10.582031 -22.535156 9.90625 -21.953125 C 8.957031 -21.109375 8.226562 -20.082031 7.71875 -18.875 C 7.21875 -17.675781 6.953125 -16.410156 6.921875 -15.078125 C 6.890625 -13.742188 7.085938 -12.472656 7.515625 -11.265625 C 8.265625 -9.285156 9.515625 -7.796875 11.265625 -6.796875 C 13.023438 -5.804688 14.894531 -5.328125 16.875 -5.359375 C 18.144531 -5.398438 19.394531 -5.601562 20.625 -5.96875 C 21.863281 -6.34375 22.957031 -6.859375 23.90625 -7.515625 L 24.34375 -7.125 C 23.726562 -5.59375 22.804688 -4.296875 21.578125 -3.234375 C 20.359375 -2.179688 18.976562 -1.378906 17.4375 -0.828125 C 15.894531 -0.273438 14.3125 0 12.6875 0 C 10.34375 0 8.210938 -0.519531 6.296875 -1.5625 C 4.378906 -2.601562 2.84375 -4.039062 1.6875 -5.875 C 0.53125 -7.71875 -0.046875 -9.804688 -0.046875 -12.140625 C -0.046875 -14.648438 0.582031 -16.8125 1.84375 -18.625 C 3.113281 -20.445312 4.78125 -21.863281 6.84375 -22.875 C 8.914062 -23.882812 11.140625 -24.390625 13.515625 -24.390625 C 14.554688 -24.390625 15.703125 -24.273438 16.953125 -24.046875 C 18.203125 -23.816406 19.390625 -23.425781 20.515625 -22.875 C 21.640625 -22.320312 22.554688 -21.570312 23.265625 -20.625 C 23.984375 -19.6875 24.34375 -18.488281 24.34375 -17.03125 Z M 24.34375 -17.03125 "/></g></g></g><g fill="#ede1d8" fill-opacity="1"><g transform="translate(150.7372, 231.127763)"><g><path d="M 24.390625 -17.03125 C 24.390625 -18.394531 24.003906 -19.546875 23.234375 -20.484375 C 22.472656 -21.429688 21.5 -22.1875 20.3125 -22.75 C 19.125 -23.320312 17.890625 -23.738281 16.609375 -24 C 15.328125 -24.257812 14.148438 -24.390625 13.078125 -24.390625 C 10.703125 -24.390625 8.519531 -23.882812 6.53125 -22.875 C 4.550781 -21.863281 2.96875 -20.445312 1.78125 -18.625 C 0.59375 -16.8125 0 -14.664062 0 -12.1875 C 0 -9.820312 0.566406 -7.71875 1.703125 -5.875 C 2.847656 -4.039062 4.382812 -2.601562 6.3125 -1.5625 C 8.25 -0.519531 10.375 0 12.6875 0 C 14.34375 0 15.941406 -0.273438 17.484375 -0.828125 C 19.035156 -1.378906 20.421875 -2.179688 21.640625 -3.234375 C 22.859375 -4.296875 23.773438 -5.59375 24.390625 -7.125 L 23.90625 -7.515625 C 22.507812 -6.503906 21.175781 -5.925781 19.90625 -5.78125 C 18.632812 -5.632812 17.609375 -5.78125 16.828125 -6.21875 C 16.046875 -6.65625 15.6875 -7.234375 15.75 -7.953125 C 15.820312 -8.703125 16.132812 -9.300781 16.6875 -9.75 C 17.238281 -10.207031 17.863281 -10.570312 18.5625 -10.84375 C 19.257812 -11.125 19.882812 -11.394531 20.4375 -11.65625 C 21.476562 -12.144531 22.394531 -12.8125 23.1875 -13.65625 C 23.988281 -14.5 24.390625 -15.625 24.390625 -17.03125 Z M 9.90625 -21.953125 C 10.875 -22.828125 11.847656 -23.335938 12.828125 -23.484375 C 13.804688 -23.628906 14.660156 -23.472656 15.390625 -23.015625 C 16.117188 -22.566406 16.640625 -21.878906 16.953125 -20.953125 C 17.265625 -20.023438 17.238281 -18.925781 16.875 -17.65625 C 16.71875 -17.039062 16.457031 -16.457031 16.09375 -15.90625 C 15.738281 -15.351562 15.382812 -14.800781 15.03125 -14.25 C 14.019531 -12.65625 13.535156 -11.039062 13.578125 -9.40625 C 13.628906 -7.78125 14.550781 -6.429688 16.34375 -5.359375 C 14.457031 -5.429688 12.691406 -5.960938 11.046875 -6.953125 C 9.398438 -7.941406 8.238281 -9.378906 7.5625 -11.265625 C 7.132812 -12.472656 6.925781 -13.742188 6.9375 -15.078125 C 6.957031 -16.410156 7.21875 -17.675781 7.71875 -18.875 C 8.226562 -20.082031 8.957031 -21.109375 9.90625 -21.953125 Z M 9.90625 -21.953125 "/></g></g></g><g fill="#ede1d8" fill-opacity="1"><g transform="translate(173.562508, 231.127763)"><g/></g></g><g fill="#ede1d8" fill-opacity="1"><g transform="translate(184.487095, 231.127763)"><g><path d="M 29.21875 -23.8125 C 29.21875 -22.375 28.914062 -21.160156 28.3125 -20.171875 C 27.71875 -19.179688 26.945312 -18.425781 26 -17.90625 C 25.050781 -17.382812 24.023438 -17.109375 22.921875 -17.078125 C 21.398438 -17.003906 20.132812 -17.382812 19.125 -18.21875 C 18.113281 -19.050781 17.507812 -20.265625 17.3125 -21.859375 C 18.84375 -21.828125 20.019531 -22.351562 20.84375 -23.4375 C 21.675781 -24.53125 22.078125 -25.804688 22.046875 -27.265625 C 22.015625 -28.765625 21.722656 -29.976562 21.171875 -30.90625 C 20.617188 -31.832031 19.894531 -32.488281 19 -32.875 C 18.101562 -33.269531 17.148438 -33.410156 16.140625 -33.296875 C 15.140625 -33.179688 14.179688 -32.832031 13.265625 -32.25 C 11.671875 -31.207031 10.46875 -29.675781 9.65625 -27.65625 C 8.84375 -25.644531 8.351562 -23.5 8.1875 -21.21875 C 8.09375 -18.519531 8.457031 -16.015625 9.28125 -13.703125 C 10.113281 -11.398438 11.382812 -9.539062 13.09375 -8.125 C 14.800781 -6.707031 16.875 -5.96875 19.3125 -5.90625 C 21.039062 -5.875 22.75 -6.238281 24.4375 -7 C 26.125 -7.757812 27.539062 -8.921875 28.6875 -10.484375 L 29.21875 -10 C 28.5 -7.851562 27.40625 -6.03125 25.9375 -4.53125 C 24.476562 -3.039062 22.820312 -1.910156 20.96875 -1.140625 C 19.125 -0.378906 17.207031 0 15.21875 0 C 13.132812 0 11.171875 -0.410156 9.328125 -1.234375 C 7.492188 -2.066406 5.878906 -3.25 4.484375 -4.78125 C 3.085938 -6.3125 1.988281 -8.113281 1.1875 -10.1875 C 0.394531 -12.269531 0 -14.566406 0 -17.078125 C 0 -19.671875 0.4375 -22.015625 1.3125 -24.109375 C 2.195312 -26.210938 3.394531 -28.007812 4.90625 -29.5 C 6.414062 -31 8.144531 -32.144531 10.09375 -32.9375 C 12.050781 -33.738281 14.101562 -34.140625 16.25 -34.140625 C 17.507812 -34.140625 18.890625 -33.976562 20.390625 -33.65625 C 21.890625 -33.332031 23.304688 -32.78125 24.640625 -32 C 25.972656 -31.21875 27.066406 -30.160156 27.921875 -28.828125 C 28.785156 -27.492188 29.21875 -25.820312 29.21875 -23.8125 Z M 29.21875 -23.8125 "/></g></g></g><g fill="#ede1d8" fill-opacity="1"><g transform="translate(213.16522, 231.127763)"><g><path d="M 0 0 L 0 -0.828125 C 0.644531 -0.828125 1.210938 -1.03125 1.703125 -1.4375 C 2.191406 -1.84375 2.4375 -2.664062 2.4375 -3.90625 L 2.4375 -30.25 C 2.4375 -31.476562 2.191406 -32.296875 1.703125 -32.703125 C 1.210938 -33.109375 0.644531 -33.3125 0 -33.3125 L 0 -34.140625 C 1.625 -34.210938 3.332031 -34.484375 5.125 -34.953125 C 6.914062 -35.421875 8.457031 -35.914062 9.75 -36.4375 L 9.75 -3.90625 C 9.75 -2.664062 10 -1.84375 10.5 -1.4375 C 11.007812 -1.03125 11.59375 -0.828125 12.25 -0.828125 L 12.25 0 Z M 0 0 "/></g></g></g><g fill="#ede1d8" fill-opacity="1"><g transform="translate(223.845933, 231.127763)"><g><path d="M 2.4375 -7.03125 L 2.4375 -18.203125 C 2.4375 -19.429688 2.191406 -20.25 1.703125 -20.65625 C 1.210938 -21.0625 0.644531 -21.265625 0 -21.265625 L 0 -22.09375 C 1.625 -22.164062 3.332031 -22.4375 5.125 -22.90625 C 6.914062 -23.375 8.457031 -23.867188 9.75 -24.390625 L 9.75 -8.296875 C 9.75 -6.472656 10.171875 -5.203125 11.015625 -4.484375 C 11.867188 -3.773438 12.9375 -3.523438 14.21875 -3.734375 C 15.5 -3.941406 16.757812 -4.484375 18 -5.359375 C 18.257812 -5.554688 18.519531 -5.742188 18.78125 -5.921875 C 19.039062 -6.097656 19.285156 -6.285156 19.515625 -6.484375 L 19.515625 -18.203125 C 19.515625 -19.429688 19.269531 -20.25 18.78125 -20.65625 C 18.289062 -21.0625 17.722656 -21.265625 17.078125 -21.265625 L 17.078125 -22.09375 C 18.703125 -22.164062 20.40625 -22.4375 22.1875 -22.90625 C 23.976562 -23.375 25.523438 -23.867188 26.828125 -24.390625 L 26.828125 -3.90625 C 26.828125 -2.664062 27.078125 -1.84375 27.578125 -1.4375 C 28.085938 -1.03125 28.664062 -0.828125 29.3125 -0.828125 L 29.3125 0 L 22 0 C 21.351562 0 20.773438 -0.207031 20.265625 -0.625 C 19.765625 -1.050781 19.515625 -1.867188 19.515625 -3.078125 L 19.515625 -5.515625 C 18.535156 -4.796875 17.582031 -4.109375 16.65625 -3.453125 C 15.726562 -2.804688 14.8125 -2.238281 13.90625 -1.75 C 12.894531 -1.226562 11.894531 -0.804688 10.90625 -0.484375 C 9.914062 -0.160156 8.914062 0 7.90625 0 C 6.3125 0 5.128906 -0.300781 4.359375 -0.90625 C 3.597656 -1.507812 3.085938 -2.347656 2.828125 -3.421875 C 2.566406 -4.492188 2.4375 -5.695312 2.4375 -7.03125 Z M 2.4375 -7.03125 "/></g></g></g><g fill="#ede1d8" fill-opacity="1"><g transform="translate(251.694911, 231.127763)"><g><path d="M 7.265625 0 L 0 0 L 0 -0.828125 C 0.644531 -0.828125 1.210938 -1.019531 1.703125 -1.40625 C 2.191406 -1.800781 2.4375 -2.632812 2.4375 -3.90625 L 2.4375 -30.203125 C 2.4375 -31.429688 2.191406 -32.265625 1.703125 -32.703125 C 1.210938 -33.140625 0.644531 -33.359375 0 -33.359375 L 0 -34.140625 C 1.625 -34.210938 3.332031 -34.484375 5.125 -34.953125 C 6.914062 -35.421875 8.457031 -35.914062 9.75 -36.4375 L 9.75 -19.703125 C 10.238281 -20.421875 10.863281 -21.132812 11.625 -21.84375 C 12.394531 -22.5625 13.285156 -23.164062 14.296875 -23.65625 C 15.304688 -24.144531 16.410156 -24.390625 17.609375 -24.390625 C 19.691406 -24.390625 21.414062 -23.835938 22.78125 -22.734375 C 24.144531 -21.628906 25.164062 -20.15625 25.84375 -18.3125 C 26.53125 -16.476562 26.875 -14.421875 26.875 -12.140625 C 26.875 -9.503906 26.398438 -7.285156 25.453125 -5.484375 C 24.515625 -3.679688 23.296875 -2.316406 21.796875 -1.390625 C 20.304688 -0.460938 18.734375 0 17.078125 0 C 14.535156 0 12.09375 -1.21875 9.75 -3.65625 L 9.75 -3.078125 C 9.75 -1.835938 9.5 -1.015625 9 -0.609375 C 8.5 -0.203125 7.921875 0 7.265625 0 Z M 9.75 -18.09375 L 9.75 -4.875 C 10.789062 -3.769531 12.003906 -3.101562 13.390625 -2.875 C 14.773438 -2.644531 16.019531 -3.082031 17.125 -4.1875 C 18.03125 -5.101562 18.65625 -6.332031 19 -7.875 C 19.34375 -9.414062 19.515625 -10.96875 19.515625 -12.53125 C 19.515625 -13.445312 19.414062 -14.488281 19.21875 -15.65625 C 19.019531 -16.832031 18.691406 -17.945312 18.234375 -19 C 17.785156 -20.050781 17.15625 -20.820312 16.34375 -21.3125 C 15.238281 -22 14.078125 -22.023438 12.859375 -21.390625 C 11.640625 -20.753906 10.601562 -19.65625 9.75 -18.09375 Z M 9.75 -18.09375 "/></g></g></g><g fill="#ede1d8" fill-opacity="1"><g transform="translate(109.379205, 255.043474)"><g><path d="M 0.921875 2.453125 C 1.316406 2.453125 1.675781 2.304688 2 2.015625 C 2.332031 1.734375 2.617188 1.398438 2.859375 1.015625 C 3.097656 0.628906 3.296875 0.289062 3.453125 0 C 3.378906 0.03125 3.222656 0.101562 2.984375 0.21875 C 2.742188 0.34375 2.503906 0.46875 2.265625 0.59375 C 2.023438 0.726562 1.859375 0.832031 1.765625 0.90625 C 1.585938 1.007812 1.398438 1.144531 1.203125 1.3125 C 1.003906 1.488281 0.832031 1.660156 0.6875 1.828125 C 0.550781 2.003906 0.492188 2.148438 0.515625 2.265625 C 0.535156 2.390625 0.671875 2.453125 0.921875 2.453125 Z M 0.28125 -1.265625 C 0.28125 -1.765625 0.300781 -2.382812 0.34375 -3.125 C 0.382812 -3.863281 0.441406 -4.644531 0.515625 -5.46875 C 0.597656 -6.289062 0.707031 -7.066406 0.84375 -7.796875 C 0.976562 -8.535156 1.132812 -9.132812 1.3125 -9.59375 C 1.425781 -9.863281 1.53125 -10.046875 1.625 -10.140625 C 1.71875 -10.242188 1.800781 -10.296875 1.875 -10.296875 C 1.96875 -10.296875 2.039062 -10.25 2.09375 -10.15625 C 2.15625 -10.0625 2.175781 -9.984375 2.15625 -9.921875 C 2.15625 -9.890625 2.140625 -9.816406 2.109375 -9.703125 C 2.078125 -9.597656 2.054688 -9.5 2.046875 -9.40625 C 1.929688 -8.988281 1.8125 -8.441406 1.6875 -7.765625 C 1.570312 -7.097656 1.460938 -6.382812 1.359375 -5.625 C 1.265625 -4.863281 1.1875 -4.140625 1.125 -3.453125 C 1.070312 -2.773438 1.046875 -2.238281 1.046875 -1.84375 L 1.484375 -2.5625 C 1.546875 -2.695312 1.613281 -2.816406 1.6875 -2.921875 C 1.757812 -3.035156 1.84375 -3.140625 1.9375 -3.234375 C 2.15625 -3.535156 2.394531 -3.769531 2.65625 -3.9375 C 2.925781 -4.101562 3.1875 -4.1875 3.4375 -4.1875 C 3.863281 -4.1875 4.203125 -3.957031 4.453125 -3.5 C 4.679688 -3.0625 4.773438 -2.664062 4.734375 -2.3125 C 4.703125 -1.96875 4.6875 -1.644531 4.6875 -1.34375 C 4.9375 -1.476562 5.132812 -1.582031 5.28125 -1.65625 C 5.4375 -1.738281 5.585938 -1.828125 5.734375 -1.921875 C 5.878906 -2.015625 6.070312 -2.144531 6.3125 -2.3125 C 6.4375 -2.40625 6.601562 -2.539062 6.8125 -2.71875 C 7.019531 -2.894531 7.21875 -3.054688 7.40625 -3.203125 C 7.59375 -3.359375 7.703125 -3.4375 7.734375 -3.4375 C 7.941406 -3.4375 8.050781 -3.394531 8.0625 -3.3125 C 8.082031 -3.226562 8.050781 -3.128906 7.96875 -3.015625 C 7.882812 -2.898438 7.796875 -2.796875 7.703125 -2.703125 C 7.609375 -2.617188 7.546875 -2.570312 7.515625 -2.5625 C 7.367188 -2.394531 7.210938 -2.25 7.046875 -2.125 C 6.890625 -2.007812 6.734375 -1.878906 6.578125 -1.734375 C 6.367188 -1.585938 6.097656 -1.414062 5.765625 -1.21875 C 5.441406 -1.03125 5.148438 -0.859375 4.890625 -0.703125 C 4.628906 -0.554688 4.476562 -0.457031 4.4375 -0.40625 C 4.394531 -0.332031 4.332031 -0.179688 4.25 0.046875 C 4.164062 0.285156 4.039062 0.5625 3.875 0.875 C 3.71875 1.1875 3.507812 1.5 3.25 1.8125 C 3 2.125 2.6875 2.394531 2.3125 2.625 C 1.851562 2.914062 1.382812 3.0625 0.90625 3.0625 C 0.625 3.0625 0.378906 2.988281 0.171875 2.84375 C -0.0234375 2.707031 -0.125 2.488281 -0.125 2.1875 C -0.125 1.882812 0.0078125 1.585938 0.28125 1.296875 C 0.550781 1.015625 0.878906 0.742188 1.265625 0.484375 C 1.648438 0.222656 2.035156 -0.00390625 2.421875 -0.203125 C 2.804688 -0.398438 3.117188 -0.5625 3.359375 -0.6875 C 3.546875 -0.769531 3.660156 -0.828125 3.703125 -0.859375 C 3.753906 -0.890625 3.804688 -1.015625 3.859375 -1.234375 C 3.953125 -1.617188 3.988281 -1.984375 3.96875 -2.328125 C 3.957031 -2.679688 3.898438 -2.96875 3.796875 -3.1875 C 3.703125 -3.40625 3.554688 -3.515625 3.359375 -3.515625 C 3.109375 -3.515625 2.789062 -3.296875 2.40625 -2.859375 C 2.070312 -2.460938 1.800781 -2.03125 1.59375 -1.5625 C 1.394531 -1.09375 1.234375 -0.691406 1.109375 -0.359375 C 0.984375 -0.0234375 0.851562 0.140625 0.71875 0.140625 C 0.539062 0.140625 0.421875 0.0664062 0.359375 -0.078125 C 0.304688 -0.234375 0.28125 -0.421875 0.28125 -0.640625 C 0.28125 -0.867188 0.28125 -1.078125 0.28125 -1.265625 Z M 0.28125 -1.265625 "/></g></g></g><g fill="#ede1d8" fill-opacity="1"><g transform="translate(116.476407, 255.043474)"><g><path d="M 0.578125 8.015625 C 0.960938 8.015625 1.304688 7.898438 1.609375 7.671875 C 1.921875 7.453125 2.191406 7.179688 2.421875 6.859375 C 2.660156 6.535156 2.859375 6.234375 3.015625 5.953125 C 3.160156 5.679688 3.320312 5.285156 3.5 4.765625 C 3.6875 4.242188 3.859375 3.675781 4.015625 3.0625 C 4.179688 2.457031 4.316406 1.882812 4.421875 1.34375 C 4.535156 0.8125 4.609375 0.390625 4.640625 0.078125 C 4.484375 0.171875 4.335938 0.269531 4.203125 0.375 L 2.234375 2.125 C 2.179688 2.175781 2.128906 2.238281 2.078125 2.3125 C 2.023438 2.382812 1.957031 2.453125 1.875 2.515625 C 1.5625 2.835938 1.273438 3.15625 1.015625 3.46875 C 0.765625 3.789062 0.515625 4.148438 0.265625 4.546875 C 0.140625 4.710938 0.015625 4.925781 -0.109375 5.1875 C -0.242188 5.457031 -0.351562 5.742188 -0.4375 6.046875 C -0.53125 6.347656 -0.566406 6.644531 -0.546875 6.9375 C -0.523438 7.226562 -0.414062 7.484375 -0.21875 7.703125 C -0.0390625 7.910156 0.222656 8.015625 0.578125 8.015625 Z M 1.046875 -1.765625 C 1.242188 -1.867188 1.472656 -2.078125 1.734375 -2.390625 C 2.003906 -2.703125 2.285156 -3.070312 2.578125 -3.5 C 2.867188 -3.9375 3.15625 -4.382812 3.4375 -4.84375 C 3.71875 -5.3125 3.972656 -5.738281 4.203125 -6.125 C 4.441406 -6.519531 4.628906 -6.835938 4.765625 -7.078125 C 4.921875 -7.347656 5.03125 -7.523438 5.09375 -7.609375 C 5.15625 -7.691406 5.289062 -7.734375 5.5 -7.734375 C 5.601562 -7.734375 5.679688 -7.65625 5.734375 -7.5 C 5.785156 -7.351562 5.828125 -7.171875 5.859375 -6.953125 C 5.890625 -6.734375 5.90625 -6.519531 5.90625 -6.3125 C 5.90625 -6.113281 5.90625 -5.960938 5.90625 -5.859375 L 5.90625 -4.3125 C 5.90625 -3.976562 5.882812 -3.625 5.84375 -3.25 C 5.8125 -2.882812 5.78125 -2.539062 5.75 -2.21875 C 5.726562 -1.894531 5.71875 -1.640625 5.71875 -1.453125 L 8.578125 -3.125 C 8.648438 -3.164062 8.789062 -3.257812 9 -3.40625 C 9.207031 -3.550781 9.390625 -3.625 9.546875 -3.625 C 9.660156 -3.625 9.71875 -3.550781 9.71875 -3.40625 C 9.71875 -3.3125 9.609375 -3.179688 9.390625 -3.015625 C 9.171875 -2.859375 8.9375 -2.710938 8.6875 -2.578125 C 8.4375 -2.441406 8.273438 -2.347656 8.203125 -2.296875 C 7.785156 -2.066406 7.375 -1.820312 6.96875 -1.5625 C 6.5625 -1.3125 6.164062 -1.050781 5.78125 -0.78125 C 5.6875 -0.71875 5.632812 -0.660156 5.625 -0.609375 C 5.625 -0.566406 5.609375 -0.46875 5.578125 -0.3125 C 5.484375 0.332031 5.347656 1.066406 5.171875 1.890625 C 5.003906 2.722656 4.789062 3.53125 4.53125 4.3125 C 4.28125 5.101562 3.988281 5.765625 3.65625 6.296875 C 3.46875 6.660156 3.21875 7.019531 2.90625 7.375 C 2.59375 7.726562 2.242188 8.019531 1.859375 8.25 C 1.472656 8.476562 1.0625 8.59375 0.625 8.59375 C 0.125 8.59375 -0.289062 8.425781 -0.625 8.09375 C -0.957031 7.757812 -1.125 7.296875 -1.125 6.703125 C -1.125 6.265625 -1.007812 5.789062 -0.78125 5.28125 C -0.550781 4.769531 -0.25 4.25 0.125 3.71875 C 0.507812 3.195312 0.921875 2.695312 1.359375 2.21875 C 1.796875 1.738281 2.234375 1.300781 2.671875 0.90625 C 3.117188 0.507812 3.515625 0.1875 3.859375 -0.0625 C 3.921875 -0.125 3.976562 -0.171875 4.03125 -0.203125 C 4.09375 -0.242188 4.160156 -0.289062 4.234375 -0.34375 C 4.421875 -0.5 4.554688 -0.609375 4.640625 -0.671875 C 4.734375 -0.734375 4.785156 -0.847656 4.796875 -1.015625 C 4.878906 -1.703125 4.953125 -2.332031 5.015625 -2.90625 C 5.085938 -3.476562 5.140625 -4.066406 5.171875 -4.671875 C 5.203125 -5.273438 5.21875 -5.957031 5.21875 -6.71875 C 5.175781 -6.695312 5.066406 -6.539062 4.890625 -6.25 C 4.710938 -5.957031 4.507812 -5.625 4.28125 -5.25 C 4.050781 -4.875 3.835938 -4.519531 3.640625 -4.1875 C 3.441406 -3.863281 3.300781 -3.640625 3.21875 -3.515625 C 3.019531 -3.203125 2.773438 -2.828125 2.484375 -2.390625 C 2.203125 -1.953125 1.925781 -1.609375 1.65625 -1.359375 C 1.40625 -1.128906 1.171875 -1.015625 0.953125 -1.015625 C 0.742188 -1.015625 0.566406 -1.117188 0.421875 -1.328125 C 0.273438 -1.535156 0.203125 -1.8125 0.203125 -2.15625 C 0.203125 -2.375 0.226562 -2.640625 0.28125 -2.953125 C 0.332031 -3.273438 0.410156 -3.59375 0.515625 -3.90625 C 0.628906 -4.21875 0.753906 -4.476562 0.890625 -4.6875 C 1.023438 -4.90625 1.175781 -5.015625 1.34375 -5.015625 C 1.570312 -5.015625 1.6875 -4.9375 1.6875 -4.78125 C 1.6875 -4.625 1.628906 -4.398438 1.515625 -4.109375 C 1.410156 -3.828125 1.304688 -3.484375 1.203125 -3.078125 C 1.097656 -2.679688 1.046875 -2.242188 1.046875 -1.765625 Z M 1.046875 -1.765625 "/></g></g></g></svg>